# xmcd
#
# Track frame offsets: 
#        150
#        17825
#        34582
#        56964
#        77908
#        98101
#        115848
#        131856
#        151564
#        170760
#        187900
#        212012
#        229668
#        252798
#        270585
#        290923
#        307393
#
# Disc length: 4319 seconds
#
# Revision: 0
# Processed by: cddbd v1.5.1PL0 Copyright (c) Steve Scherf et al.
# Submitted via: ExactAudioCopy v0.95b2
#
DISCID=f310dd11
DTITLE=МГК - Любовное Настроение
DYEAR=1900
DGENRE=Pop
TTITLE0=В Твоей Руке Моя Рука
TTITLE1=Моя Судьба, Дорога
TTITLE2=Ах, Какие...
TTITLE3=Тайна
TTITLE4=Не Спешите, Девчонки
TTITLE5=Падает Снег
TTITLE6=Открою Альбом
TTITLE7=Ночь
TTITLE8=Первая Любовь
TTITLE9=Прощальный Дождь
TTITLE10=Jump
TTITLE11=Мне Нужен Ты
TTITLE12=Лодка
TTITLE13=Там, В Декабре
TTITLE14=Остров Любви
TTITLE15=Летний Сад
TTITLE16=Свечи
EXTD=
EXTT0=
EXTT1=
EXTT2=
EXTT3=
EXTT4=
EXTT5=
EXTT6=
EXTT7=
EXTT8=
EXTT9=
EXTT10=
EXTT11=
EXTT12=
EXTT13=
EXTT14=
EXTT15=
EXTT16=
PLAYORDER=
